<svg width="25" height="25" viewBox="0 0 27 25" fill="none" xmlns="http://www.w3.org/2000/svg">
<path d="M13.2358 0.0935059C9.73057 0.0935059 9.29066 0.108832 7.91393 0.171479C6.53988 0.234399 5.60197 0.451943 4.78131 0.771111C3.93242 1.10077 3.21232 1.54176 2.49492 2.25942C1.77698 2.97683 1.33599 3.69691 1.00525 4.54553C0.685259 5.36645 0.467458 6.30461 0.405619 7.67811C0.344037 9.05483 0.327904 9.495 0.327904 13.0003C0.327904 16.5056 0.343505 16.9441 0.405876 18.3207C0.469071 19.6948 0.686615 20.6327 1.00551 21.4534C1.33545 22.3023 1.77643 23.0224 2.49411 23.7398C3.21126 24.4577 3.93134 24.8998 4.7797 25.2294C5.60091 25.5485 6.53907 25.7662 7.91285 25.8291C9.28958 25.8917 9.72923 25.907 13.2343 25.907C16.7398 25.907 17.1783 25.8917 18.5551 25.8291C19.9292 25.7662 20.8682 25.5485 21.6894 25.2294C22.538 24.8998 23.2569 24.4577 23.9742 23.7398C24.6921 23.0224 25.1331 22.3023 25.4638 21.4537C25.7812 20.6327 25.999 19.6945 26.0635 18.3211C26.1253 16.9444 26.1414 16.5056 26.1414 13.0003C26.1414 9.495 26.1253 9.0551 26.0635 7.67837C25.999 6.30435 25.7812 5.36645 25.4638 4.5458C25.1331 3.69691 24.6921 2.97683 23.9742 2.25942C23.2561 1.54148 22.5382 1.10051 21.6886 0.771111C20.8658 0.451943 19.9273 0.234399 18.5532 0.171479C17.1765 0.108832 16.7382 0.0935059 13.2318 0.0935059H13.2358ZM12.0781 2.41942C12.4217 2.41887 12.805 2.41942 13.2358 2.41942C16.6821 2.41942 17.0904 2.43177 18.4514 2.49363C19.7098 2.55116 20.3927 2.76144 20.8477 2.93811C21.45 3.17204 21.8794 3.45168 22.3309 3.90342C22.7826 4.35515 23.0623 4.78538 23.2968 5.38769C23.4734 5.84213 23.684 6.5251 23.7412 7.78351C23.8032 9.14409 23.8166 9.55282 23.8166 12.9974C23.8166 16.4418 23.8032 16.8505 23.7412 18.211C23.6838 19.4694 23.4734 20.1525 23.2968 20.6069C23.0628 21.2093 22.7826 21.6381 22.3309 22.0895C21.8791 22.5413 21.4503 22.821 20.8477 23.0549C20.3932 23.2324 19.7098 23.4421 18.4514 23.4996C17.0907 23.5615 16.6821 23.5749 13.2358 23.5749C9.78946 23.5749 9.38101 23.5615 8.02041 23.4996C6.76199 23.4415 6.07899 23.2313 5.62375 23.0546C5.02144 22.8207 4.59121 22.5411 4.13946 22.0894C3.68773 21.6376 3.40808 21.2085 3.1736 20.6059C2.99694 20.1514 2.7864 19.4685 2.72912 18.2101C2.66728 16.8494 2.65491 16.4407 2.65491 12.9941C2.65491 9.54743 2.66728 9.14087 2.72912 7.78028C2.78667 6.52188 2.99694 5.8389 3.1736 5.38394C3.40754 4.78161 3.68773 4.3514 4.13946 3.89966C4.59121 3.44792 5.02144 3.16827 5.62375 2.9338C6.07873 2.75633 6.76199 2.5466 8.02041 2.48879C9.21107 2.435 9.67249 2.41887 12.0781 2.41619V2.41942ZM20.1254 4.56247C19.2703 4.56247 18.5766 5.2554 18.5766 6.11075C18.5766 6.96582 19.2703 7.65956 20.1254 7.65956C20.9805 7.65956 21.6742 6.96582 21.6742 6.11075C21.6742 5.25567 20.9805 4.56247 20.1254 4.56247ZM13.2358 6.37211C9.57541 6.37211 6.60764 9.33986 6.60764 13.0003C6.60764 16.6606 9.57541 19.6271 13.2358 19.6271C16.8963 19.6271 19.8631 16.6606 19.8631 13.0003C19.8631 9.33986 16.8961 6.37211 13.2358 6.37211ZM13.2358 8.698C15.6118 8.698 17.5381 10.6241 17.5381 13.0003C17.5381 15.3762 15.6118 17.3026 13.2358 17.3026C10.8597 17.3026 8.93358 15.3762 8.93358 13.0003C8.93358 10.6241 10.8597 8.698 13.2358 8.698Z" fill="black"/>
</svg>
