<svg width="24" height="23" viewBox="0 0 24 23" fill="none" xmlns="http://www.w3.org/2000/svg">
<path d="M5.6413 22.9457V7.70583H0.799408V22.9457H5.6413ZM3.22136 5.62546C4.90948 5.62546 5.96045 4.45522 5.96045 2.99274C5.92884 1.49696 4.90948 0.359375 3.25347 0.359375C1.59632 0.359375 0.514008 1.49696 0.514008 2.99261C0.514008 4.45508 1.56459 5.62532 3.18964 5.62532L3.22136 5.62546ZM8.32135 22.9457H13.1628V14.436C13.1628 13.9812 13.1944 13.5251 13.3223 13.2001C13.6723 12.2897 14.469 11.3474 15.8067 11.3474C17.5583 11.3474 18.2595 12.7447 18.2595 14.7936V22.9457H23.1008V14.2077C23.1008 9.52672 20.7124 7.34854 17.527 7.34854C14.9154 7.34854 13.7683 8.87574 13.131 9.91586H13.1633V7.70637H8.32161C8.3848 9.13597 8.32135 22.9457 8.32135 22.9457Z" fill="black"/>
</svg>
