<svg width="25" height="25" viewBox="0 0 30 20" fill="none" xmlns="http://www.w3.org/2000/svg">
<path d="M9.64057 24.3166C20.5997 24.3166 26.5928 15.2341 26.5928 7.35817C26.5928 7.10023 26.5876 6.84348 26.576 6.58778C27.7421 5.74368 28.7485 4.69854 29.5479 3.50137C28.4804 3.97616 27.3315 4.29574 26.1263 4.43981C27.3565 3.70194 28.3008 2.53461 28.7464 1.14316C27.5769 1.83723 26.2973 2.3265 24.9631 2.58991C23.8759 1.43137 22.3279 0.706787 20.614 0.706787C17.3238 0.706787 14.6556 3.376 14.6556 6.66622C14.6556 7.134 14.7079 7.58884 14.8102 8.02527C9.85824 7.77601 5.46729 5.40428 2.52861 1.79792C1.99932 2.70751 1.72094 3.74128 1.72186 4.79366C1.72186 6.86153 2.77368 8.687 4.37326 9.75507C3.42708 9.72603 2.50169 9.47047 1.67488 9.00954C1.67399 9.03455 1.67399 9.05891 1.67399 9.08569C1.67399 11.9721 3.7277 14.3821 6.45394 14.9283C5.94192 15.0678 5.41356 15.1383 4.88287 15.138C4.49962 15.138 4.12611 15.1002 3.76311 15.0305C4.52164 17.3988 6.72115 19.1221 9.32892 19.1702C7.28967 20.7692 4.72086 21.7216 1.92892 21.7216C1.45398 21.7219 0.979414 21.6945 0.507721 21.639C3.14459 23.3297 6.27533 24.3166 9.64057 24.3166Z" fill="black"/>
</svg>
