<svg width="25" height="25" viewBox="0 0 30 17" fill="none" xmlns="http://www.w3.org/2000/svg">
<path d="M15.8091 20.382L9.85117 20.2731C7.92212 20.2352 5.98827 20.3108 4.09706 19.9175C1.22008 19.3297 1.01625 16.448 0.802985 14.0307C0.509114 10.6324 0.622887 7.17223 1.17744 3.80229C1.49051 1.91137 2.72257 0.783031 4.6279 0.660256C11.0598 0.21465 17.5344 0.267455 23.9522 0.47535C24.6299 0.494404 25.3124 0.598577 25.9806 0.717142C29.2797 1.29541 29.3601 4.56111 29.574 7.31017C29.7873 10.0877 29.6971 12.8794 29.2896 15.6379C28.9626 17.9219 28.3367 19.8373 25.6962 20.0222C22.3877 20.264 19.1552 20.4588 15.8375 20.3967C15.8377 20.382 15.8185 20.382 15.8091 20.382ZM12.3064 14.5996C14.7996 13.1681 17.2453 11.7604 19.7242 10.3384C17.2263 8.90706 14.7853 7.49942 12.3064 6.07743V14.5996Z" fill="black"/>
</svg>
